<svg width="18" height="19" viewBox="0 0 18 19" fill="none" xmlns="http://www.w3.org/2000/svg">
<g clip-path="url(#clip0_350_17320)">
<path d="M11.2499 18.5L6.74988 15.125V11.285L0.749878 4.53499V2.74999C0.749878 2.15326 0.986931 1.58096 1.40889 1.159C1.83084 0.737045 2.40314 0.499992 2.99988 0.499992L14.9999 0.499992C15.5966 0.499992 16.1689 0.737045 16.5909 1.159C17.0128 1.58096 17.2499 2.15326 17.2499 2.74999V4.53499L11.2499 11.285V18.5ZM8.24988 14.375L9.74988 15.5V10.715L15.7499 3.96499V2.74999C15.7499 2.55108 15.6709 2.36031 15.5302 2.21966C15.3896 2.07901 15.1988 1.99999 14.9999 1.99999H2.99988C2.80097 1.99999 2.6102 2.07901 2.46955 2.21966C2.3289 2.36031 2.24988 2.55108 2.24988 2.74999V3.96499L8.24988 10.715V14.375Z" fill="#374957"/>
</g>
<defs>
<clipPath id="clip0_350_17320">
<rect width="18" height="18" fill="white" transform="translate(0 0.5)"/>
</clipPath>
</defs>
</svg>
