<svg width="15" height="15" viewBox="0 0 15 15" fill="none" xmlns="http://www.w3.org/2000/svg">
<g clip-path="url(#clip0_350_17311)">
<path d="M14.9999 14.1167L11.0861 10.2029C12.1028 8.95957 12.6026 7.373 12.4823 5.77142C12.3619 4.16984 11.6306 2.67578 10.4396 1.59827C9.24859 0.520763 7.68898 -0.0577488 6.08339 -0.0176039C4.4778 0.022541 2.94905 0.678271 1.81337 1.81395C0.677691 2.94963 0.0219612 4.47838 -0.0181837 6.08397C-0.0583286 7.68956 0.520183 9.24917 1.59769 10.4402C2.6752 11.6312 4.16926 12.3625 5.77084 12.4828C7.37242 12.6032 8.95899 12.1033 10.2024 11.0867L14.1161 15.0004L14.9999 14.1167ZM6.24986 11.2504C5.26096 11.2504 4.29426 10.9572 3.47201 10.4078C2.64977 9.85838 2.0089 9.07749 1.63047 8.16386C1.25203 7.25023 1.15301 6.2449 1.34594 5.27499C1.53886 4.30509 2.01507 3.41417 2.71433 2.71491C3.41359 2.01565 4.30451 1.53944 5.27441 1.34652C6.24432 1.15359 7.24965 1.25261 8.16328 1.63105C9.07691 2.00948 9.8578 2.65035 10.4072 3.47259C10.9566 4.29484 11.2499 5.26154 11.2499 6.25044C11.2484 7.57607 10.7211 8.84697 9.78375 9.78433C8.84639 10.7217 7.57549 11.249 6.24986 11.2504Z" fill="#374957"/>
</g>
<defs>
<clipPath id="clip0_350_17311">
<rect width="15" height="15" fill="white"/>
</clipPath>
</defs>
</svg>
